# Blender v2.92.0 OBJ File: 'untitled.blend'
# www.blender.org
mtllib Piyopiyo.mtl
o 円柱
v 0.000000 -0.206901 -1.000000
v 0.000000 0.206901 -1.000000
v 0.195090 -0.206901 -0.980785
v 0.195090 0.206901 -0.980785
v 0.382683 -0.206901 -0.923880
v 0.382683 0.206901 -0.923880
v 0.555570 -0.206901 -0.831470
v 0.555570 0.206901 -0.831470
v 0.707107 -0.206901 -0.707107
v 0.707107 0.206901 -0.707107
v 0.831470 -0.206901 -0.555570
v 0.831470 0.206901 -0.555570
v 0.923880 -0.206901 -0.382683
v 0.923880 0.206901 -0.382683
v 0.980785 -0.206901 -0.195090
v 0.980785 0.206901 -0.195090
v 1.000000 -0.206901 -0.000000
v 1.000000 0.206901 -0.000000
v 0.980785 -0.206901 0.195090
v 0.980785 0.206901 0.195090
v 0.923880 -0.206901 0.382683
v 0.923880 0.206901 0.382683
v 0.831470 -0.206901 0.555570
v 0.831470 0.206901 0.555570
v 0.707107 -0.206901 0.707107
v 0.707107 0.206901 0.707107
v 0.555570 -0.206901 0.831470
v 0.555570 0.206901 0.831470
v 0.382683 -0.206901 0.923880
v 0.382683 0.206901 0.923880
v 0.195090 -0.206901 0.980785
v 0.195090 0.206901 0.980785
v -0.000000 -0.206901 1.000000
v -0.000000 0.206901 1.000000
v -0.195091 -0.206901 0.980785
v -0.195091 0.206901 0.980785
v -0.382684 -0.206901 0.923879
v -0.382684 0.206901 0.923879
v -0.555571 -0.206901 0.831469
v -0.555571 0.206901 0.831469
v -0.707107 -0.206901 0.707106
v -0.707107 0.206901 0.707106
v -0.831470 -0.206901 0.555570
v -0.831470 0.206901 0.555570
v -0.923880 -0.206901 0.382683
v -0.923880 0.206901 0.382683
v -0.980785 -0.206901 0.195089
v -0.980785 0.206901 0.195089
v -1.000000 -0.206901 -0.000001
v -1.000000 0.206901 -0.000001
v -0.980785 -0.206901 -0.195091
v -0.980785 0.206901 -0.195091
v -0.923879 -0.206901 -0.382684
v -0.923879 0.206901 -0.382684
v -0.831469 -0.206901 -0.555571
v -0.831469 0.206901 -0.555571
v -0.707106 -0.206901 -0.707108
v -0.707106 0.206901 -0.707108
v -0.555569 -0.206901 -0.831470
v -0.555569 0.206901 -0.831470
v -0.382682 -0.206901 -0.923880
v -0.382682 0.206901 -0.923880
v -0.195089 -0.206901 -0.980786
v -0.195089 0.206901 -0.980786
vt 0.071435 0.000000
vt 0.071435 0.473685
vt 0.032831 0.473685
vt 0.032831 0.000000
vt 0.000000 0.473685
vt 0.000000 0.000000
vt 1.000000 0.000000
vt 1.000000 0.473685
vt 0.961395 0.473685
vt 0.961395 0.000000
vt 0.918500 0.473685
vt 0.918500 0.000000
vt 0.872963 0.473685
vt 0.872963 0.000000
vt 0.826534 0.473685
vt 0.826534 0.000000
vt 0.780997 0.473685
vt 0.780997 0.000000
vt 0.738102 0.473685
vt 0.738102 0.000000
vt 0.699497 0.473685
vt 0.699497 0.000000
vt 0.666667 0.473685
vt 0.666667 0.000000
vt 0.628062 0.473685
vt 0.628062 0.000000
vt 0.585167 0.473685
vt 0.585167 0.000000
vt 0.539630 0.473685
vt 0.539630 0.000000
vt 0.493200 0.473685
vt 0.493201 0.000000
vt 0.447663 0.473685
vt 0.447663 0.000000
vt 0.404768 0.473685
vt 0.404768 0.000000
vt 0.366164 0.473685
vt 0.366164 0.000000
vt 0.333333 0.473686
vt 0.333333 0.947371
vt 0.300503 0.947371
vt 0.300503 0.473686
vt 0.261898 0.947371
vt 0.261898 0.473686
vt 0.219003 0.947371
vt 0.219003 0.473686
vt 0.173466 0.947371
vt 0.173466 0.473686
vt 0.127037 0.947371
vt 0.127037 0.473686
vt 0.081500 0.947371
vt 0.081500 0.473686
vt 0.038605 0.947371
vt 0.038605 0.473686
vt 0.000000 0.947371
vt 0.000000 0.473686
vt 0.366164 0.000000
vt 0.366164 0.473685
vt 0.333333 0.473685
vt 0.333333 0.000000
vt 0.294729 0.473685
vt 0.294729 0.000000
vt 0.251833 0.473685
vt 0.251834 0.000000
vt 0.206296 0.473685
vt 0.206296 0.000000
vt 0.159867 0.473685
vt 0.159867 0.000000
vt 0.114330 0.473685
vt 0.114330 0.000000
vn 0.0980 0.0000 -0.9952
vn 0.2903 0.0000 -0.9569
vn 0.4714 0.0000 -0.8819
vn 0.6344 0.0000 -0.7730
vn 0.7730 0.0000 -0.6344
vn 0.8819 0.0000 -0.4714
vn 0.9569 0.0000 -0.2903
vn 0.9952 0.0000 -0.0980
vn 0.9952 0.0000 0.0980
vn 0.9569 0.0000 0.2903
vn 0.8819 0.0000 0.4714
vn 0.7730 0.0000 0.6344
vn 0.6344 0.0000 0.7730
vn 0.4714 0.0000 0.8819
vn 0.2903 0.0000 0.9569
vn 0.0980 0.0000 0.9952
vn -0.0980 0.0000 0.9952
vn -0.2903 0.0000 0.9569
vn -0.4714 0.0000 0.8819
vn -0.6344 0.0000 0.7730
vn -0.7730 0.0000 0.6344
vn -0.8819 0.0000 0.4714
vn -0.9569 0.0000 0.2903
vn -0.9952 0.0000 0.0980
vn -0.9952 0.0000 -0.0980
vn -0.9569 0.0000 -0.2903
vn -0.8819 0.0000 -0.4714
vn -0.7730 0.0000 -0.6344
vn -0.6344 0.0000 -0.7730
vn -0.4714 0.0000 -0.8819
vn -0.2903 0.0000 -0.9569
vn -0.0980 0.0000 -0.9952
usemtl マテリアル
s off
f 1/1/1 2/2/1 4/3/1 3/4/1
f 3/4/2 4/3/2 6/5/2 5/6/2
f 5/7/3 6/8/3 8/9/3 7/10/3
f 7/10/4 8/9/4 10/11/4 9/12/4
f 9/12/5 10/11/5 12/13/5 11/14/5
f 11/14/6 12/13/6 14/15/6 13/16/6
f 13/16/7 14/15/7 16/17/7 15/18/7
f 15/18/8 16/17/8 18/19/8 17/20/8
f 17/20/9 18/19/9 20/21/9 19/22/9
f 19/22/10 20/21/10 22/23/10 21/24/10
f 21/24/11 22/23/11 24/25/11 23/26/11
f 23/26/12 24/25/12 26/27/12 25/28/12
f 25/28/13 26/27/13 28/29/13 27/30/13
f 27/30/14 28/29/14 30/31/14 29/32/14
f 29/32/15 30/31/15 32/33/15 31/34/15
f 31/34/16 32/33/16 34/35/16 33/36/16
f 33/36/17 34/35/17 36/37/17 35/38/17
f 35/39/18 36/40/18 38/41/18 37/42/18
f 37/42/19 38/41/19 40/43/19 39/44/19
f 39/44/20 40/43/20 42/45/20 41/46/20
f 41/46/21 42/45/21 44/47/21 43/48/21
f 43/48/22 44/47/22 46/49/22 45/50/22
f 45/50/23 46/49/23 48/51/23 47/52/23
f 47/52/24 48/51/24 50/53/24 49/54/24
f 49/54/25 50/53/25 52/55/25 51/56/25
f 51/57/26 52/58/26 54/59/26 53/60/26
f 53/60/27 54/59/27 56/61/27 55/62/27
f 55/62/28 56/61/28 58/63/28 57/64/28
f 57/64/29 58/63/29 60/65/29 59/66/29
f 59/66/30 60/65/30 62/67/30 61/68/30
f 61/68/31 62/67/31 64/69/31 63/70/31
f 63/70/32 64/69/32 2/2/32 1/1/32
