# Blender v2.92.0 OBJ File: 'untitled.blend'
# www.blender.org
mtllib PiyoPiyo.mtl
o 円柱
v 0.000000 -0.206901 -1.000000
v 0.000000 0.206901 -1.000000
v 0.195090 -0.206901 -0.980785
v 0.195090 0.206901 -0.980785
v 0.382683 -0.206901 -0.923880
v 0.382683 0.206901 -0.923880
v 0.555570 -0.206901 -0.831470
v 0.555570 0.206901 -0.831470
v 0.707107 -0.206901 -0.707107
v 0.707107 0.206901 -0.707107
v 0.831470 -0.206901 -0.555570
v 0.831470 0.206901 -0.555570
v 0.923880 -0.206901 -0.382683
v 0.923880 0.206901 -0.382683
v 0.980785 -0.206901 -0.195090
v 0.980785 0.206901 -0.195090
v 1.000000 -0.206901 -0.000000
v 1.000000 0.206901 -0.000000
v 0.980785 -0.206901 0.195090
v 0.980785 0.206901 0.195090
v 0.923880 -0.206901 0.382683
v 0.923880 0.206901 0.382683
v 0.831470 -0.206901 0.555570
v 0.831470 0.206901 0.555570
v 0.707107 -0.206901 0.707107
v 0.707107 0.206901 0.707107
v 0.555570 -0.206901 0.831470
v 0.555570 0.206901 0.831470
v 0.382683 -0.206901 0.923880
v 0.382683 0.206901 0.923880
v 0.195090 -0.206901 0.980785
v 0.195090 0.206901 0.980785
v -0.000000 -0.206901 1.000000
v -0.000000 0.206901 1.000000
v -0.195091 -0.206901 0.980785
v -0.195091 0.206901 0.980785
v -0.382684 -0.206901 0.923879
v -0.382684 0.206901 0.923879
v -0.555571 -0.206901 0.831469
v -0.555571 0.206901 0.831469
v -0.707107 -0.206901 0.707106
v -0.707107 0.206901 0.707106
v -0.831470 -0.206901 0.555570
v -0.831470 0.206901 0.555570
v -0.923880 -0.206901 0.382683
v -0.923880 0.206901 0.382683
v -0.980785 -0.206901 0.195089
v -0.980785 0.206901 0.195089
v -1.000000 -0.206901 -0.000001
v -1.000000 0.206901 -0.000001
v -0.980785 -0.206901 -0.195091
v -0.980785 0.206901 -0.195091
v -0.923879 -0.206901 -0.382684
v -0.923879 0.206901 -0.382684
v -0.831469 -0.206901 -0.555571
v -0.831469 0.206901 -0.555571
v -0.707106 -0.206901 -0.707108
v -0.707106 0.206901 -0.707108
v -0.555569 -0.206901 -0.831470
v -0.555569 0.206901 -0.831470
v -0.382682 -0.206901 -0.923880
v -0.382682 0.206901 -0.923880
v -0.195089 -0.206901 -0.980786
v -0.195089 0.206901 -0.980786
vt 0.494538 0.509028
vt 0.888540 0.817727
vt 0.818987 0.887514
vt 0.492629 0.507727
vt 0.737096 0.942450
vt 0.491035 0.506085
vt 0.645995 0.980387
vt 0.489817 0.504170
vt 0.549183 0.999830
vt 0.489025 0.502061
vt 0.450395 1.000000
vt 0.488689 0.499845
vt 0.353447 0.980873
vt 0.488823 0.497616
vt 0.262093 0.943180
vt 0.489431 0.495469
vt 0.179864 0.888382
vt 0.490486 0.493494
vt 0.110407 0.818169
vt 0.491934 0.491756
vt 0.056018 0.735819
vt 0.493676 0.490297
vt 0.018750 0.644512
vt 0.495656 0.489176
vt 0.000000 0.547759
vt 0.497808 0.488434
vt 0.000451 0.449268
vt 0.500057 0.488099
vt 0.020057 0.352795
vt 0.502322 0.488179
vt 0.058064 0.261988
vt 0.504523 0.488665
vt 0.113018 0.180325
vt 0.506580 0.489546
vt 0.182820 0.110926
vt 0.508419 0.490784
vt 0.264818 0.056443
vt 0.509973 0.492328
vt 0.355861 0.018986
vt 0.511187 0.494124
vt 0.452440 0.000000
vt 0.512016 0.496103
vt 0.550823 0.000210
vt 0.512434 0.498184
vt 0.647214 0.019587
vt 0.512428 0.500290
vt 0.737915 0.057358
vt 0.512001 0.502346
vt 0.819451 0.112042
vt 0.511173 0.504266
vt 0.888752 0.181561
vt 0.509743 0.506219
vt 0.943179 0.263244
vt 0.507977 0.507867
vt 0.980667 0.353981
vt 0.505941 0.509151
vt 0.999778 0.450301
vt 0.503708 0.510021
vt 0.999778 0.548523
vt 0.501362 0.510445
vt 0.980658 0.644905
vt 0.498991 0.510412
vt 0.943113 0.735806
vt 0.496686 0.509937
vn 0.0980 0.0000 -0.9952
vn 0.2903 0.0000 -0.9569
vn 0.4714 0.0000 -0.8819
vn 0.6344 0.0000 -0.7730
vn 0.7730 0.0000 -0.6344
vn 0.8819 0.0000 -0.4714
vn 0.9569 0.0000 -0.2903
vn 0.9952 0.0000 -0.0980
vn 0.9952 0.0000 0.0980
vn 0.9569 0.0000 0.2903
vn 0.8819 0.0000 0.4714
vn 0.7730 0.0000 0.6344
vn 0.6344 0.0000 0.7730
vn 0.4714 0.0000 0.8819
vn 0.2903 0.0000 0.9569
vn 0.0980 0.0000 0.9952
vn -0.0980 0.0000 0.9952
vn -0.2903 0.0000 0.9569
vn -0.4714 0.0000 0.8819
vn -0.6344 0.0000 0.7730
vn -0.7730 0.0000 0.6344
vn -0.8819 0.0000 0.4714
vn -0.9569 0.0000 0.2903
vn -0.9952 0.0000 0.0980
vn -0.9952 0.0000 -0.0980
vn -0.9569 0.0000 -0.2903
vn -0.8819 0.0000 -0.4714
vn -0.7730 0.0000 -0.6344
vn -0.6344 0.0000 -0.7730
vn -0.4714 0.0000 -0.8819
vn -0.2903 0.0000 -0.9569
vn -0.0980 0.0000 -0.9952
usemtl マテリアル
s off
f 1/1/1 2/2/1 4/3/1 3/4/1
f 3/4/2 4/3/2 6/5/2 5/6/2
f 5/6/3 6/5/3 8/7/3 7/8/3
f 7/8/4 8/7/4 10/9/4 9/10/4
f 9/10/5 10/9/5 12/11/5 11/12/5
f 11/12/6 12/11/6 14/13/6 13/14/6
f 13/14/7 14/13/7 16/15/7 15/16/7
f 15/16/8 16/15/8 18/17/8 17/18/8
f 17/18/9 18/17/9 20/19/9 19/20/9
f 19/20/10 20/19/10 22/21/10 21/22/10
f 21/22/11 22/21/11 24/23/11 23/24/11
f 23/24/12 24/23/12 26/25/12 25/26/12
f 25/26/13 26/25/13 28/27/13 27/28/13
f 27/28/14 28/27/14 30/29/14 29/30/14
f 29/30/15 30/29/15 32/31/15 31/32/15
f 31/32/16 32/31/16 34/33/16 33/34/16
f 33/34/17 34/33/17 36/35/17 35/36/17
f 35/36/18 36/35/18 38/37/18 37/38/18
f 37/38/19 38/37/19 40/39/19 39/40/19
f 39/40/20 40/39/20 42/41/20 41/42/20
f 41/42/21 42/41/21 44/43/21 43/44/21
f 43/44/22 44/43/22 46/45/22 45/46/22
f 45/46/23 46/45/23 48/47/23 47/48/23
f 47/48/24 48/47/24 50/49/24 49/50/24
f 49/50/25 50/49/25 52/51/25 51/52/25
f 51/52/26 52/51/26 54/53/26 53/54/26
f 53/54/27 54/53/27 56/55/27 55/56/27
f 55/56/28 56/55/28 58/57/28 57/58/28
f 57/58/29 58/57/29 60/59/29 59/60/29
f 59/60/30 60/59/30 62/61/30 61/62/30
f 61/62/31 62/61/31 64/63/31 63/64/31
f 63/64/32 64/63/32 2/2/32 1/1/32
