# Blender v2.92.0 OBJ File: ''
# www.blender.org
mtllib tree.mtl
o Cube.002
v -70.006821 1.071711 -6.950597
v -70.006821 -0.928289 -6.950597
v -70.006821 1.071711 -4.950597
v -70.006821 -0.928289 -4.950597
v -84.928818 1.071711 -6.950597
v -84.928818 -0.928289 -6.950597
v -84.928818 1.071711 -4.950597
v -84.928818 -0.928289 -4.950597
v 7.284393 1.000000 5.157490
v 7.284393 -1.000000 5.157490
v 7.284393 1.000000 7.157490
v 7.284393 -1.000000 7.157490
v -7.637604 1.000000 5.157490
v -7.637604 -1.000000 5.157490
v -7.637604 1.000000 7.157490
v -7.637604 -1.000000 7.157490
v -7.638329 -1.000000 -4.840012
v -7.638329 1.000000 -4.840012
v -7.638329 -1.000000 -6.840011
v -7.638329 1.000000 -6.840011
v 7.343834 -1.000000 -4.840012
v 7.343834 1.000000 -4.840012
v 7.343834 -1.000000 -6.840011
v 7.343834 1.000000 -6.840011
v -9.646812 -1.000000 34.939846
v -9.646812 1.000000 34.939846
v -9.646812 -1.000000 5.151952
v -9.646812 1.000000 5.151952
v -7.646812 -1.000000 34.939846
v -7.646812 1.000000 34.939846
v -7.646812 -1.000000 5.151952
v -7.646812 1.000000 5.151952
v -9.573952 -0.956893 -4.831195
v -9.573952 1.043107 -4.831195
v -9.573952 -0.956893 -34.619087
v -9.573952 1.043107 -34.619087
v -7.573952 -0.956893 -4.831195
v -7.573952 1.043107 -4.831195
v -7.573952 -0.956893 -34.619087
v -7.573952 1.043107 -34.619087
v -69.902824 -1.000000 36.931515
v -69.902824 1.000000 36.931515
v -69.902824 -1.000000 34.931507
v -69.902824 1.000000 34.931507
v -7.684464 -1.000000 36.931515
v -7.684464 1.000000 36.931515
v -7.684464 -1.000000 34.931507
v -7.684464 1.000000 34.931507
v -70.382347 -0.938522 -34.577793
v -70.382347 1.061478 -34.577793
v -70.382347 -0.938522 -36.577797
v -70.382347 1.061478 -36.577797
v -8.163971 -0.938522 -34.577793
v -8.163971 1.061478 -34.577793
v -8.163971 -0.938522 -36.577797
v -8.163971 1.061478 -36.577797
v -69.877319 -1.020377 34.927612
v -69.877319 0.979623 34.927612
v -69.877319 -1.020377 5.139720
v -69.877319 0.979623 5.139720
v -67.877319 -1.020377 34.927612
v -67.877319 0.979623 34.927612
v -67.877319 -1.020377 5.139720
v -67.877319 0.979623 5.139720
v -69.825134 -0.991028 -4.899575
v -69.825134 1.008972 -4.899575
v -69.825134 -0.991028 -34.687466
v -69.825134 1.008972 -34.687466
v -67.825134 -0.991028 -4.899575
v -67.825134 1.008972 -4.899575
v -67.825134 -0.991028 -34.687466
v -67.825134 1.008972 -34.687466
v 7.305779 -1.160190 7.111373
v 7.305779 0.839809 7.111373
v 7.305779 -1.160190 -6.898831
v 7.305779 0.839809 -6.898831
v 9.305779 -1.160190 7.111373
v 9.305779 0.839809 7.111373
v 9.305779 -1.160190 -6.898831
v 9.305779 0.839809 -6.898831
v -69.857758 -0.917545 5.006466
v -69.857758 13.066182 5.006466
v -69.857758 -0.917545 -4.798891
v -69.857758 13.066182 -4.798891
v -67.857758 -0.917545 5.006466
v -67.857758 13.066182 5.006466
v -67.857758 -0.917545 -4.798891
v -67.857758 13.066182 -4.798891
v -70.006821 1.071711 5.129840
v -70.006821 -0.928289 5.129840
v -70.006821 1.071711 7.129840
v -70.006821 -0.928289 7.129840
v -84.928818 1.071711 5.129840
v -84.928818 -0.928289 5.129840
v -84.928818 1.071711 7.129840
v -84.928818 -0.928289 7.129840
v -86.890587 -1.160190 7.025538
v -86.890587 0.839809 7.025538
v -86.890587 -1.160190 -6.984666
v -86.890587 0.839809 -6.984666
v -84.890587 -1.160190 7.025538
v -84.890587 0.839809 7.025538
v -84.890587 -1.160190 -6.984666
v -84.890587 0.839809 -6.984666
vt 0.625000 0.500000
vt 0.875000 0.500000
vt 0.875000 0.750000
vt 0.625000 0.750000
vt 0.375000 0.750000
vt 0.625000 1.000000
vt 0.375000 1.000000
vt 0.375000 0.000000
vt 0.625000 0.000000
vt 0.625000 0.250000
vt 0.375000 0.250000
vt 0.125000 0.500000
vt 0.375000 0.500000
vt 0.125000 0.750000
vt 0.625000 0.500000
vt 0.875000 0.500000
vt 0.875000 0.750000
vt 0.625000 0.750000
vt 0.375000 0.750000
vt 0.625000 1.000000
vt 0.375000 1.000000
vt 0.375000 0.000000
vt 0.625000 0.000000
vt 0.625000 0.250000
vt 0.375000 0.250000
vt 0.125000 0.500000
vt 0.375000 0.500000
vt 0.125000 0.750000
vt 0.000000 0.000000
vt 0.000000 0.000000
vt 0.000000 0.000000
vt 0.000000 0.000000
vt 0.000000 0.000000
vt 0.000000 0.000000
vt 0.000000 0.000000
vt 0.000000 0.000000
vt 0.000000 0.000000
vt 0.000000 0.000000
vt 0.000000 0.000000
vt 0.000000 0.000000
vt 0.000000 0.000000
vt 0.000000 0.000000
vt 0.000000 0.000000
vt 0.000000 0.000000
vt 0.000000 0.000000
vt 0.000000 0.000000
vt 0.000000 0.000000
vt 0.000000 0.000000
vt 0.000000 0.000000
vt 0.000000 0.000000
vt 0.000000 0.000000
vt 0.000000 0.000000
vt 0.000000 0.000000
vt 0.000000 0.000000
vt 0.000000 0.000000
vt 0.000000 0.000000
vt 0.000000 0.000000
vt 0.000000 0.000000
vt 0.000000 0.000000
vt 0.000000 0.000000
vt 0.000000 0.000000
vt 0.000000 0.000000
vt 0.000000 0.000000
vt 0.000000 0.000000
vt 0.000000 0.000000
vt 0.000000 0.000000
vt 0.000000 0.000000
vt 0.000000 0.000000
vt 0.000000 0.000000
vt 0.000000 0.000000
vt 0.000000 0.000000
vt 0.000000 0.000000
vt 0.000000 0.000000
vt 0.000000 0.000000
vt 0.000000 0.000000
vt 0.000000 0.000000
vt 0.000000 0.000000
vt 0.000000 0.000000
vt 0.000000 0.000000
vt 0.000000 0.000000
vt 0.000000 0.000000
vt 0.000000 0.000000
vt 0.000000 0.000000
vt 0.000000 0.000000
vt 0.000000 0.000000
vt 0.000000 0.000000
vt 0.000000 0.000000
vt 0.000000 0.000000
vt 0.000000 0.000000
vt 0.000000 0.000000
vt 0.000000 0.000000
vt 0.000000 0.000000
vt 0.000000 0.000000
vt 0.000000 0.000000
vt 0.000000 0.000000
vt 0.000000 0.000000
vt 0.000000 0.000000
vt 0.000000 0.000000
vt 0.000000 0.000000
vt 0.000000 0.000000
vt 0.625000 0.500000
vt 0.875000 0.500000
vt 0.875000 0.750000
vt 0.625000 0.750000
vt 0.375000 0.750000
vt 0.625000 1.000000
vt 0.375000 1.000000
vt 0.375000 0.000000
vt 0.625000 0.000000
vt 0.625000 0.250000
vt 0.375000 0.250000
vt 0.125000 0.500000
vt 0.375000 0.500000
vt 0.125000 0.750000
vt 0.000000 0.000000
vt 0.000000 0.000000
vt 0.000000 0.000000
vt 0.000000 0.000000
vt 0.000000 0.000000
vt 0.000000 0.000000
vt 0.000000 0.000000
vt 0.000000 0.000000
vn 0.0000 1.0000 0.0000
vn 0.0000 0.0000 1.0000
vn -1.0000 0.0000 0.0000
vn 0.0000 -1.0000 0.0000
vn 1.0000 0.0000 0.0000
vn 0.0000 0.0000 -1.0000
usemtl Material
s off
f 1/1/1 5/2/1 7/3/1 3/4/1
f 4/5/2 3/4/2 7/6/2 8/7/2
f 8/8/3 7/9/3 5/10/3 6/11/3
f 6/12/4 2/13/4 4/5/4 8/14/4
f 2/13/5 1/1/5 3/4/5 4/5/5
f 6/11/6 5/10/6 1/1/6 2/13/6
f 9/15/1 13/16/1 15/17/1 11/18/1
f 12/19/2 11/18/2 15/20/2 16/21/2
f 16/22/3 15/23/3 13/24/3 14/25/3
f 14/26/4 10/27/4 12/19/4 16/28/4
f 10/27/5 9/15/5 11/18/5 12/19/5
f 14/25/6 13/24/6 9/15/6 10/27/6
f 17/29/3 18/30/3 20/31/3 19/32/3
f 19/32/6 20/31/6 24/33/6 23/34/6
f 23/34/5 24/33/5 22/35/5 21/36/5
f 21/36/2 22/35/2 18/30/2 17/29/2
f 19/32/4 23/34/4 21/36/4 17/29/4
f 24/33/1 20/31/1 18/30/1 22/35/1
f 25/37/3 26/38/3 28/39/3 27/40/3
f 27/40/6 28/39/6 32/41/6 31/42/6
f 31/42/5 32/41/5 30/43/5 29/44/5
f 29/44/2 30/43/2 26/38/2 25/37/2
f 27/40/4 31/42/4 29/44/4 25/37/4
f 32/41/1 28/39/1 26/38/1 30/43/1
f 33/45/3 34/46/3 36/47/3 35/48/3
f 35/48/6 36/47/6 40/49/6 39/50/6
f 39/50/5 40/49/5 38/51/5 37/52/5
f 37/52/2 38/51/2 34/46/2 33/45/2
f 35/48/4 39/50/4 37/52/4 33/45/4
f 40/49/1 36/47/1 34/46/1 38/51/1
f 41/53/3 42/54/3 44/55/3 43/56/3
f 43/56/6 44/55/6 48/57/6 47/58/6
f 47/58/5 48/57/5 46/59/5 45/60/5
f 45/60/2 46/59/2 42/54/2 41/53/2
f 43/56/4 47/58/4 45/60/4 41/53/4
f 48/57/1 44/55/1 42/54/1 46/59/1
f 49/61/3 50/62/3 52/63/3 51/64/3
f 51/64/6 52/63/6 56/65/6 55/66/6
f 55/66/5 56/65/5 54/67/5 53/68/5
f 53/68/2 54/67/2 50/62/2 49/61/2
f 51/64/4 55/66/4 53/68/4 49/61/4
f 56/65/1 52/63/1 50/62/1 54/67/1
f 57/69/3 58/70/3 60/71/3 59/72/3
f 59/72/6 60/71/6 64/73/6 63/74/6
f 63/74/5 64/73/5 62/75/5 61/76/5
f 61/76/2 62/75/2 58/70/2 57/69/2
f 59/72/4 63/74/4 61/76/4 57/69/4
f 64/73/1 60/71/1 58/70/1 62/75/1
f 65/77/3 66/78/3 68/79/3 67/80/3
f 67/80/6 68/79/6 72/81/6 71/82/6
f 71/82/5 72/81/5 70/83/5 69/84/5
f 69/84/2 70/83/2 66/78/2 65/77/2
f 67/80/4 71/82/4 69/84/4 65/77/4
f 72/81/1 68/79/1 66/78/1 70/83/1
f 73/85/3 74/86/3 76/87/3 75/88/3
f 75/88/6 76/87/6 80/89/6 79/90/6
f 79/90/5 80/89/5 78/91/5 77/92/5
f 77/92/2 78/91/2 74/86/2 73/85/2
f 75/88/4 79/90/4 77/92/4 73/85/4
f 80/89/1 76/87/1 74/86/1 78/91/1
f 81/93/3 82/94/3 84/95/3 83/96/3
f 83/96/6 84/95/6 88/97/6 87/98/6
f 87/98/5 88/97/5 86/99/5 85/100/5
f 85/100/2 86/99/2 82/94/2 81/93/2
f 83/96/4 87/98/4 85/100/4 81/93/4
f 88/97/1 84/95/1 82/94/1 86/99/1
f 89/101/1 93/102/1 95/103/1 91/104/1
f 92/105/2 91/104/2 95/106/2 96/107/2
f 96/108/3 95/109/3 93/110/3 94/111/3
f 94/112/4 90/113/4 92/105/4 96/114/4
f 90/113/5 89/101/5 91/104/5 92/105/5
f 94/111/6 93/110/6 89/101/6 90/113/6
f 97/115/3 98/116/3 100/117/3 99/118/3
f 99/118/6 100/117/6 104/119/6 103/120/6
f 103/120/5 104/119/5 102/121/5 101/122/5
f 101/122/2 102/121/2 98/116/2 97/115/2
f 99/118/4 103/120/4 101/122/4 97/115/4
f 104/119/1 100/117/1 98/116/1 102/121/1
