# Blender v2.92.0 OBJ File: 'RightHand.blend'
# www.blender.org
mtllib RightHand.mtl
o 立方体
v -1.357378 -1.251200 1.385291
v -2.285148 0.961324 1.064349
v -2.285148 -0.961324 -1.064349
v -1.357378 1.251200 -1.385291
v 2.285148 -0.961324 1.064349
v 1.357378 1.251200 1.385291
v 1.357378 -1.251200 -1.385291
v 2.285149 0.961324 -1.064349
v -2.248015 -1.429045 0.036843
v -2.248015 -0.033277 1.582195
v -2.248015 1.429045 -0.036843
v -2.248015 0.033277 -1.582195
v -0.665549 -1.429045 -1.582195
v 0.665549 1.429045 -1.582195
v 2.248015 -0.033277 -1.582195
v 2.248015 -1.429045 -0.036843
v 2.248015 1.429045 0.036843
v 2.248015 0.033277 1.582195
v 0.665549 -1.429045 1.582195
v -0.665549 1.429045 1.582195
v -2.885000 0.000000 -0.000000
v -0.000000 0.000000 -2.038637
v 2.885000 0.000000 0.000000
v 0.000000 -0.000000 2.038637
v 0.000000 -1.841305 -0.000000
v -0.000000 1.841305 -0.000000
v -2.808590 -0.587886 0.650890
v -1.001538 -0.575408 -2.000259
v 2.808590 -0.587886 -0.650890
v 1.001538 -0.575408 2.000259
v -1.001538 -1.806642 -0.637074
v 1.001538 1.806642 -0.637074
v -2.808590 0.587887 -0.650890
v 1.001538 0.575408 -2.000259
v 2.808590 0.587887 0.650890
v -1.001538 0.575408 2.000259
v 1.001538 -1.806642 0.637074
v -1.001538 1.806642 0.637074
vt 0.583333 0.041667
vt 0.496528 0.128472
vt 0.457031 0.084635
vt 0.494792 0.005208
vt 0.375000 0.250000
vt 0.375000 0.125000
vt 0.375000 0.000000
vt 0.625000 0.250000
vt 0.496528 0.371528
vt 0.457031 0.332031
vt 0.500000 0.250000
vt 0.333333 0.458333
vt 0.369792 0.369792
vt 0.666667 0.458333
vt 0.500000 0.625000
vt 0.457031 0.582031
vt 0.500000 0.493056
vt 0.333333 0.791667
vt 0.368056 0.625000
vt 0.666667 0.791667
vt 0.506945 0.875000
vt 0.459635 0.834635
vt 0.500000 0.756945
vt 0.416667 0.958333
vt 0.375000 0.875000
vt 0.250000 0.618056
vt 0.208333 0.580729
vt 0.244792 0.494792
vt 0.166667 0.708333
vt 0.130208 0.619792
vt 0.125000 0.500000
vt 0.833333 0.541667
vt 0.750000 0.631944
vt 0.709635 0.584635
vt 0.750000 0.500000
vt 0.631945 0.625000
vt 0.619792 0.130208
vt 0.540365 0.167969
vt 0.630208 0.369792
vt 0.541667 0.414062
vt 0.542969 0.667969
vt 0.630208 0.880208
vt 0.544271 0.916667
vt 0.625000 1.000000
vt 0.505208 0.994792
vt 0.290365 0.665365
vt 0.250000 0.750000
vt 0.869792 0.630208
vt 0.791667 0.669271
vt 0.875000 0.750000
vt 0.755208 0.755208
vn -0.9059 0.2076 0.3691
vn -0.8958 -0.4041 -0.1854
vn -0.5614 -0.6141 0.5547
vn -0.1870 0.2805 -0.9415
vn 0.1378 -0.3590 -0.9231
vn -0.4274 -0.4625 -0.7768
vn 0.9059 0.2076 -0.3691
vn 0.8958 -0.4041 0.1854
vn 0.5614 -0.6141 -0.5547
vn 0.1870 0.2805 0.9415
vn -0.1378 -0.3590 0.9231
vn 0.4274 -0.4625 0.7768
vn 0.1275 -0.9454 -0.3000
vn -0.1717 -0.9573 0.2327
vn -0.4081 -0.8212 -0.3988
vn -0.1275 0.9454 -0.3000
vn 0.1717 0.9573 0.2327
vn 0.4081 0.8212 -0.3988
vn -0.8958 0.4041 0.1854
vn -0.5614 0.6141 -0.5547
vn -0.9059 -0.2076 -0.3691
vn -0.1378 0.3590 -0.9231
vn 0.4274 0.4625 -0.7768
vn 0.1870 -0.2805 -0.9415
vn 0.8958 0.4041 -0.1854
vn 0.5614 0.6141 0.5547
vn 0.9059 -0.2076 0.3691
vn 0.1378 0.3590 0.9231
vn -0.4274 0.4625 0.7768
vn -0.1870 -0.2805 0.9415
vn 0.1717 -0.9573 -0.2327
vn 0.4081 -0.8212 0.3988
vn -0.1275 -0.9454 0.3000
vn -0.1717 0.9573 -0.2327
vn -0.4081 0.8212 0.3988
vn 0.1275 0.9454 0.3000
usemtl マテリアル
s off
f 2/1/1 21/2/1 27/3/1 10/4/1
f 3/5/2 9/6/2 27/3/2 21/2/2
f 1/7/3 10/4/3 27/3/3 9/6/3
f 4/8/4 22/9/4 28/10/4 12/11/4
f 7/12/5 13/13/5 28/10/5 22/9/5
f 3/5/6 12/11/6 28/10/6 13/13/6
f 8/14/7 23/15/7 29/16/7 15/17/7
f 5/18/8 16/19/8 29/16/8 23/15/8
f 7/12/9 15/17/9 29/16/9 16/19/9
f 6/20/10 24/21/10 30/22/10 18/23/10
f 1/24/11 19/25/11 30/22/11 24/21/11
f 5/18/12 18/23/12 30/22/12 19/25/12
f 7/12/13 25/26/13 31/27/13 13/28/13
f 1/29/14 9/30/14 31/27/14 25/26/14
f 3/31/15 13/28/15 31/27/15 9/30/15
f 4/32/16 26/33/16 32/34/16 14/35/16
f 6/20/17 17/36/17 32/34/17 26/33/17
f 8/14/18 14/35/18 32/34/18 17/36/18
f 2/1/19 11/37/19 33/38/19 21/2/19
f 4/8/20 12/11/20 33/38/20 11/37/20
f 3/5/21 21/2/21 33/38/21 12/11/21
f 4/8/22 14/39/22 34/40/22 22/9/22
f 8/14/23 15/17/23 34/40/23 14/39/23
f 7/12/24 22/9/24 34/40/24 15/17/24
f 8/14/25 17/36/25 35/41/25 23/15/25
f 6/20/26 18/23/26 35/41/26 17/36/26
f 5/18/27 23/15/27 35/41/27 18/23/27
f 6/20/28 20/42/28 36/43/28 24/21/28
f 2/44/29 10/45/29 36/43/29 20/42/29
f 1/24/30 24/21/30 36/43/30 10/45/30
f 7/12/31 16/19/31 37/46/31 25/26/31
f 5/18/32 19/47/32 37/46/32 16/19/32
f 1/29/33 25/26/33 37/46/33 19/47/33
f 4/32/34 11/48/34 38/49/34 26/33/34
f 2/50/35 20/51/35 38/49/35 11/48/35
f 6/20/36 26/33/36 38/49/36 20/51/36
