# Blender v2.92.0 OBJ File: 'BossMap_ver2.blend'
# www.blender.org
mtllib JstyleMap.mtl
o Cube
v 8.735882 1.476097 -8.633539
v 8.735882 -0.083678 -8.633539
v 8.735882 1.476097 8.856562
v 8.735882 -0.083678 8.856562
v -7.808782 1.476097 -8.633539
v -7.808782 -0.083678 -8.633539
v -7.808782 1.476097 8.856562
v -7.808782 -0.083678 8.856562
v -6.527390 -0.083678 -8.633539
v -6.527390 1.476097 8.856562
v -6.527390 -0.083678 8.856562
v -6.527390 1.476097 -8.633539
v 7.354928 -0.083678 8.856562
v 7.354928 1.476097 -8.633539
v 7.354928 -0.083678 -8.633539
v 7.354928 1.476097 8.856562
v -7.808782 -0.083678 7.564817
v 8.735882 0.762723 7.564817
v -7.808782 1.476097 7.564817
v 8.735882 -0.083678 7.564817
v -6.527390 -0.083678 7.564817
v -6.527390 1.476097 7.564817
v 7.354928 0.762723 7.564817
v 7.354928 -0.083678 7.564817
v -7.808782 1.476097 -7.288598
v 8.735882 -0.083678 -7.288598
v -7.808782 -0.083678 -7.288598
v 8.735882 0.762723 -7.288598
v -6.527390 -0.083678 -7.288598
v -6.527390 1.476097 -7.288598
v 7.354928 0.762723 -7.288598
v 7.354928 -0.083678 -7.288598
v 8.735882 1.476097 -7.288598
v 8.735882 1.476097 7.564817
v 7.354928 1.476097 -7.288598
v 7.354928 1.476097 7.564817
vt 0.951443 0.940679
vt 0.968205 0.940679
vt 0.968205 0.957576
vt 0.951443 0.957576
vt 0.245550 0.000000
vt 0.245550 0.500000
vt 0.228788 0.500000
vt 0.228788 0.000000
vt 0.017593 0.000000
vt 0.017593 0.500000
vt 0.000000 0.500000
vt 0.000000 0.000000
vt 0.950141 0.711891
vt 0.968205 0.711891
vt 0.968205 0.728788
vt 0.950141 0.728788
vt 0.890418 0.000000
vt 0.890418 0.500000
vt 0.873520 0.500000
vt 0.873520 0.000000
vt 0.463273 0.000000
vt 0.463273 0.500000
vt 0.445209 0.500000
vt 0.445209 0.000000
vt 0.661630 0.000000
vt 0.661630 0.500000
vt 0.644868 0.500000
vt 0.644868 0.000000
vt 0.751785 0.711891
vt 0.768546 0.711891
vt 0.768546 0.728788
vt 0.751785 0.728788
vt 0.427145 0.000000
vt 0.427145 0.500000
vt 0.769849 0.940679
vt 0.769849 0.957576
vt 0.751785 0.940679
vt 0.751785 0.957576
vt 0.445209 0.000000
vt 0.445209 0.500000
vt 0.181595 0.500000
vt 0.363189 0.500000
vt 0.363189 1.000000
vt 0.181595 1.000000
vt 0.908482 0.000000
vt 0.926546 0.000000
vt 0.926546 0.194298
vt 0.908482 0.194298
vt 0.661630 0.000000
vt 0.855927 0.000000
vt 0.855927 0.500000
vt 0.661630 0.500000
vt 0.751785 0.517593
vt 0.768546 0.517593
vt 0.557487 0.771322
vt 0.557487 0.500000
vt 0.751784 0.500000
vt 0.751784 0.771322
vt 0.950141 0.517593
vt 0.968205 0.517593
vt 0.211891 0.500000
vt 0.211891 0.000000
vt 0.951443 0.746381
vt 0.968205 0.746381
vt 0.951443 0.728788
vt 0.968205 0.728788
vt 0.950141 0.500000
vt 0.968205 0.500000
vt 0.873520 0.000000
vt 0.873520 0.500000
vt 0.855927 0.500000
vt 0.855927 0.000000
vt 0.751785 0.500000
vt 0.768546 0.500000
vt 0.769849 0.728788
vt 0.769849 0.746381
vt 0.751785 0.728788
vt 0.751785 0.746381
vt 0.000000 1.000000
vt 0.000000 0.500000
vt 0.181595 0.500000
vt 0.181595 1.000000
vt 0.557487 0.500000
vt 0.557487 0.771322
vt 0.363189 0.771322
vt 0.363189 0.500000
vt 0.890418 0.228678
vt 0.908482 0.228678
vt 0.908482 0.457357
vt 0.890418 0.457357
vt 0.890418 0.000000
vt 0.908482 0.228678
vt 0.890418 0.228678
vn 0.0000 1.0000 0.0000
vn 0.0000 0.0000 1.0000
vn -1.0000 0.0000 0.0000
vn 0.0000 -1.0000 0.0000
vn 1.0000 0.0000 0.0000
vn 0.0000 0.0000 -1.0000
usemtl Material
s off
f 22/1/1 19/2/1 7/3/1 10/4/1
f 11/5/2 10/6/2 7/7/2 8/8/2
f 27/9/3 25/10/3 5/11/3 6/12/3
f 24/13/4 20/14/4 4/15/4 13/16/4
f 20/17/5 34/18/5 3/19/5 4/20/5
f 15/21/6 14/22/6 1/23/6 2/24/6
f 6/25/6 5/26/6 12/27/6 9/28/6
f 17/29/4 21/30/4 11/31/4 8/32/4
f 13/33/2 16/34/2 10/6/2 11/5/2
f 36/35/1 22/1/1 10/4/1 16/36/1
f 34/37/1 36/35/1 16/36/1 3/38/1
f 4/39/2 3/40/2 16/34/2 13/33/2
f 9/28/6 12/27/6 14/22/6 15/21/6
f 21/30/4 24/13/4 13/16/4 11/31/4
f 24/41/6 21/42/6 22/43/6 36/44/6
f 28/45/1 31/46/1 23/47/1 18/48/1
f 21/49/5 29/50/5 30/51/5 22/52/5
f 27/53/4 29/54/4 21/30/4 17/29/4
f 18/55/5 20/56/5 26/57/5 28/58/5
f 32/59/4 26/60/4 20/14/4 24/13/4
f 8/8/3 7/7/3 19/61/3 17/62/3
f 30/63/1 25/64/1 19/2/1 22/1/1
f 12/65/1 5/66/1 25/64/1 30/63/1
f 15/67/4 2/68/4 26/60/4 32/59/4
f 2/69/5 1/70/5 33/71/5 26/72/5
f 6/73/4 9/74/4 29/54/4 27/53/4
f 14/75/1 12/65/1 30/63/1 35/76/1
f 1/77/1 14/75/1 35/76/1 33/78/1
f 9/74/4 15/67/4 32/59/4 29/54/4
f 17/62/3 19/61/3 25/10/3 27/9/3
f 30/79/2 29/80/2 32/81/2 35/82/2
f 24/83/3 23/84/3 31/85/3 32/86/3
f 18/87/6 23/88/6 36/89/6 34/90/6
f 31/91/2 28/45/2 33/92/2 35/93/2
